<svg width="85" height="85" viewBox="0 0 85 85" fill="none" xmlns="http://www.w3.org/2000/svg">
<g clip-path="url(#clip0_51_921)">
<path d="M42.5 76.8306C46.412 76.8306 49.5834 73.6592 49.5834 69.7472C49.5834 65.8352 46.412 62.6639 42.5 62.6639C38.588 62.6639 35.4167 65.8352 35.4167 69.7472C35.4167 73.6592 38.588 76.8306 42.5 76.8306Z" fill="#F06530"/>
<path d="M68.8972 41.8153L69.1569 41.4139C69.4133 41.0166 69.588 40.5722 69.671 40.1067C69.754 39.6412 69.7435 39.1638 69.6402 38.7024C69.537 38.2409 69.3429 37.8047 69.0694 37.4189C68.7959 37.0332 68.4484 36.7057 68.0472 36.4556C60.3702 31.713 51.5237 29.2029 42.5 29.2069C41.1777 29.2069 39.8791 29.2069 38.6041 29.3722L46.1833 36.9514C52.5458 37.5137 58.6898 39.5509 64.1277 42.9014C64.9083 43.3744 65.8422 43.5255 66.7321 43.3229C67.622 43.1202 68.3984 42.5796 68.8972 41.8153Z" fill="#F06530"/>
<path d="M77.35 22.1472C69.481 17.2394 60.6644 14.0484 51.4771 12.783C42.2898 11.5176 32.9389 12.2063 24.0361 14.8042L30.2459 21.0139C45.0816 17.829 60.5746 20.5565 73.4306 28.6167C74.2069 29.0753 75.1297 29.2183 76.0085 29.0162C76.8872 28.8141 77.6548 28.2823 78.1528 27.5306L78.4125 27.1292C78.6747 26.7338 78.8554 26.2901 78.944 25.824C79.0325 25.3579 79.0272 24.8789 78.9282 24.4149C78.8293 23.9509 78.6387 23.5114 78.3677 23.122C78.0967 22.7326 77.7507 22.4012 77.35 22.1472Z" fill="#F06530"/>
<path d="M7.08336 11.2153L14.4028 18.5347C12.0316 19.6294 9.72923 20.8674 7.50836 22.2417C7.10193 22.4899 6.74935 22.8171 6.47143 23.2038C6.19352 23.5906 5.99591 24.0291 5.89027 24.4934C5.78463 24.9578 5.7731 25.4387 5.85636 25.9076C5.93961 26.3765 6.11597 26.824 6.37502 27.2236L6.63475 27.625C7.13272 28.3767 7.90032 28.9085 8.77907 29.1106C9.65781 29.3127 10.5806 29.1697 11.357 28.7111C14.115 26.9762 17.0135 25.4756 20.0222 24.225L27.4361 31.6389C23.6844 32.8451 20.0928 34.5021 16.7403 36.5736C16.341 36.8257 15.9957 37.1545 15.7245 37.5411C15.4533 37.9278 15.2616 38.3644 15.1606 38.8257C15.0595 39.287 15.0511 39.7638 15.1359 40.2283C15.2206 40.6929 15.3968 41.136 15.6542 41.5319L15.9139 41.9333C16.4119 42.685 17.1795 43.2168 18.0582 43.419C18.937 43.6211 19.8598 43.4781 20.6361 43.0194C24.6415 40.5419 29.0417 38.769 33.6459 37.7778L42.1459 46.2778C36.4905 46.3354 30.9541 47.9091 26.1139 50.8347C25.7154 51.0845 25.3706 51.4112 25.0996 51.7958C24.8287 52.1803 24.6371 52.6149 24.536 53.0743C24.4349 53.5337 24.4263 54.0086 24.5108 54.4714C24.5952 54.9341 24.771 55.3754 25.0278 55.7694L25.2639 56.1472C25.7835 56.9151 26.58 57.4521 27.4867 57.6458C28.3934 57.8395 29.3399 57.6747 30.1278 57.1861C33.3055 55.2985 36.8751 54.1675 40.56 53.8809C44.245 53.5943 47.9464 54.1597 51.3778 55.5333L68.4722 72.6042L71.8014 69.275L10.4125 7.88611L7.08336 11.2153Z" fill="#F06530"/>
</g>
<defs>
<clipPath id="clip0_51_921">
<rect width="85" height="85" fill="white"/>
</clipPath>
</defs>
</svg>
