<svg width="21" height="21" viewBox="0 0 21 21" fill="none" xmlns="http://www.w3.org/2000/svg">
<path d="M10.5 0.804626C5 0.804626 0.5 5.29463 0.5 10.8246C0.5 15.8246 4.16 19.9746 8.94 20.7246V13.7246H6.4V10.8246H8.94V8.61463C8.94 6.10463 10.43 4.72463 12.72 4.72463C13.81 4.72463 14.95 4.91463 14.95 4.91463V7.38463H13.69C12.45 7.38463 12.06 8.15463 12.06 8.94463V10.8246H14.84L14.39 13.7246H12.06V20.7246C14.4164 20.3525 16.5622 19.1501 18.1099 17.3347C19.6576 15.5192 20.5053 13.2103 20.5 10.8246C20.5 5.29463 16 0.804626 10.5 0.804626V0.804626Z" fill="#F06530"/>
</svg>
