<svg width="21" height="20" viewBox="0 0 21 20" fill="none" xmlns="http://www.w3.org/2000/svg">
<path d="M6.3 0.00306702H14.7C17.9 0.00306702 20.5 2.54107 20.5 5.66477V13.8645C20.5 15.3661 19.8889 16.8061 18.8012 17.8679C17.7135 18.9297 16.2383 19.5262 14.7 19.5262H6.3C3.1 19.5262 0.5 16.9882 0.5 13.8645V5.66477C0.5 4.16319 1.11107 2.72312 2.19878 1.66134C3.28649 0.599567 4.76174 0.00306702 6.3 0.00306702V0.00306702ZM6.1 1.95538C5.14522 1.95538 4.22955 2.32562 3.55442 2.98465C2.87928 3.64369 2.5 4.53753 2.5 5.46954V14.0597C2.5 16.0023 4.11 17.5739 6.1 17.5739H14.9C15.8548 17.5739 16.7705 17.2036 17.4456 16.5446C18.1207 15.8856 18.5 14.9917 18.5 14.0597V5.46954C18.5 3.52699 16.89 1.95538 14.9 1.95538H6.1ZM15.75 3.41961C16.0815 3.41961 16.3995 3.54817 16.6339 3.777C16.8683 4.00583 17 4.31619 17 4.63981C17 4.96342 16.8683 5.27379 16.6339 5.50262C16.3995 5.73145 16.0815 5.86 15.75 5.86C15.4185 5.86 15.1005 5.73145 14.8661 5.50262C14.6317 5.27379 14.5 4.96342 14.5 4.63981C14.5 4.31619 14.6317 4.00583 14.8661 3.777C15.1005 3.54817 15.4185 3.41961 15.75 3.41961ZM10.5 4.88385C11.8261 4.88385 13.0979 5.39807 14.0355 6.31339C14.9732 7.22872 15.5 8.47016 15.5 9.76463C15.5 11.0591 14.9732 12.3005 14.0355 13.2159C13.0979 14.1312 11.8261 14.6454 10.5 14.6454C9.17392 14.6454 7.90215 14.1312 6.96447 13.2159C6.02678 12.3005 5.5 11.0591 5.5 9.76463C5.5 8.47016 6.02678 7.22872 6.96447 6.31339C7.90215 5.39807 9.17392 4.88385 10.5 4.88385V4.88385ZM10.5 6.83616C9.70435 6.83616 8.94129 7.14469 8.37868 7.69389C7.81607 8.24308 7.5 8.98795 7.5 9.76463C7.5 10.5413 7.81607 11.2862 8.37868 11.8354C8.94129 12.3846 9.70435 12.6931 10.5 12.6931C11.2956 12.6931 12.0587 12.3846 12.6213 11.8354C13.1839 11.2862 13.5 10.5413 13.5 9.76463C13.5 8.98795 13.1839 8.24308 12.6213 7.69389C12.0587 7.14469 11.2956 6.83616 10.5 6.83616Z" fill="#F06530"/>
</svg>
