<svg width="19" height="19" viewBox="0 0 19 19" fill="none" xmlns="http://www.w3.org/2000/svg">
<path d="M16.5 0.764633C17.0304 0.764633 17.5391 0.975347 17.9142 1.35042C18.2893 1.72549 18.5 2.2342 18.5 2.76463V16.7646C18.5 17.2951 18.2893 17.8038 17.9142 18.1788C17.5391 18.5539 17.0304 18.7646 16.5 18.7646H2.5C1.96957 18.7646 1.46086 18.5539 1.08579 18.1788C0.710714 17.8038 0.5 17.2951 0.5 16.7646V2.76463C0.5 2.2342 0.710714 1.72549 1.08579 1.35042C1.46086 0.975347 1.96957 0.764633 2.5 0.764633H16.5ZM16 16.2646V10.9646C16 10.1 15.6565 9.27083 15.0452 8.65946C14.4338 8.0481 13.6046 7.70463 12.74 7.70463C11.89 7.70463 10.9 8.22463 10.42 9.00463V7.89463H7.63V16.2646H10.42V11.3346C10.42 10.5646 11.04 9.93463 11.81 9.93463C12.1813 9.93463 12.5374 10.0821 12.7999 10.3447C13.0625 10.6072 13.21 10.9633 13.21 11.3346V16.2646H16ZM4.38 6.32463C4.82556 6.32463 5.25288 6.14763 5.56794 5.83257C5.883 5.51751 6.06 5.0902 6.06 4.64463C6.06 3.71463 5.31 2.95463 4.38 2.95463C3.93178 2.95463 3.50193 3.13269 3.18499 3.44962C2.86805 3.76656 2.69 4.19642 2.69 4.64463C2.69 5.57463 3.45 6.32463 4.38 6.32463V6.32463ZM5.77 16.2646V7.89463H3V16.2646H5.77V16.2646Z" fill="#F06530"/>
</svg>
