<svg width="375" height="987" viewBox="0 0 375 987" fill="none" xmlns="http://www.w3.org/2000/svg">
<g clip-path="url(#clip0_51_847)">
<rect width="375" height="987" fill="#F06530"/>
<path d="M-53.7528 731.382C-63.6239 766.884 -67.7794 812.121 -57.8681 858.162L-146.939 921.28L-105.657 980.876L-35.3204 930.016C-28.3101 944.53 -18.2632 960.786 -7.30075 974.741C-2.96941 981.262 2.18812 987.045 7.34566 992.828L-85.7456 1071.4L-39.5065 1126.57L59.368 1042.85C141.287 1104.77 211.578 1082.13 250.61 1057.71C334.277 1006.82 323.206 926.218 293.112 849.228L434.769 730.315C434.68 731.878 435.417 732.704 434.591 733.441L432.67 739.603C432.581 741.166 432.581 741.166 431.754 741.903C425.546 768.205 411.701 790.935 397.477 806.586L446.105 861.115C492.908 810.477 518.076 740.568 503.99 671.55L564.123 620.891L518.621 566.541L476.664 600.991C473.249 592.171 468.27 583.262 462.465 575.09L531.15 525.703L490.605 466.933L415.4 520.65C357.773 472.664 292.507 475.987 241.798 498.96C164.54 533.744 121.464 615.173 139.97 689.148C141.913 696.315 145.418 703.572 148.097 711.566L9.16422 810.249C8.11603 787.452 11.578 768.049 15.6873 751.035C24.6428 717.833 40.8768 694.456 61.7319 686.241L34.9639 619.634C-5.92019 635.328 -38.8568 676.567 -53.7528 731.382ZM419.926 647.141L260.918 781.527C257.323 775.833 255.381 768.665 252.524 763.797C246.808 754.062 241.919 743.59 237.677 735.507L403.605 617.198C410.057 627.759 416.51 638.321 419.926 647.141ZM353.235 565.706L210.261 666.51C200.171 623.595 232.371 581.53 271.045 563.357C287.121 556.436 318.27 546.457 353.235 565.706ZM62.5215 946.589C61.7847 945.763 61.048 944.937 59.5744 943.284L53.0327 934.286C52.2959 933.46 50.8223 931.807 49.3487 930.155C39.123 917.025 30.5497 902.422 24.3656 887.171L177.991 778.351C181.585 784.045 184.354 790.476 188.685 796.996C193.574 807.468 199.2 818.767 204.916 828.502L62.5215 946.589ZM212.543 996.725C181.595 1016.91 151.072 1015.95 116.196 995.134L233.068 898.325C249.142 946.287 245.791 977.457 212.543 996.725Z" fill="#FD6FB0"/>
<path d="M231.172 623.885L214.297 704.042L223.717 705.952L230.125 676.006C242.914 679.272 261.238 681.721 272.771 674.386C277.59 671.034 280.467 666.072 281.051 659.905C283.127 640.619 266.966 630.671 250.455 626.456C242.433 624.407 235.944 624.113 235.449 624.11L231.172 623.885ZM238.949 634.169C241.334 634.53 244.679 635.013 248.283 635.933C259.561 638.813 273.034 645.225 271.51 658.955C271.173 662.213 269.793 664.709 267.398 666.327C259.163 671.903 241.22 668.931 232.151 666.616L238.949 634.169Z" fill="#FECB95"/>
<path d="M275.65 594.42L301.31 672.211L310.416 669.132L300.919 640.018C313.619 636.42 330.695 629.336 336.985 617.202C339.469 611.883 339.465 606.147 336.873 600.52C328.983 582.8 310.012 582.314 293.617 586.959C285.651 589.217 279.891 592.221 279.462 592.467L275.65 594.42ZM287.541 599.407C289.784 598.522 292.919 597.26 296.498 596.246C307.697 593.072 322.568 591.852 328.144 604.49C329.489 607.477 329.549 610.328 328.291 612.93C323.969 621.888 306.961 628.328 297.955 630.88L287.541 599.407Z" fill="#FECB95"/>
<path d="M146.269 649.311L154.008 655.338C158.826 648.909 166.141 640.283 173.929 631.467L202.825 645.699C202.431 661.048 201.792 673.293 201.809 673.561L211.469 674.145C211.618 671.34 215.008 606.285 210.709 587.248L202.335 584.864C200.734 586.791 162.291 628.478 146.269 649.311ZM180.555 623.851C188.892 614.355 196.884 605.365 202.428 599.375C203.293 609 203.256 622.283 203.075 634.984L180.555 623.851Z" fill="#FECB95"/>
<path d="M335.76 659.6C331.68 659.96 326.52 660.08 319.56 660.08V673.52C329.64 673.52 335.88 673.16 336.36 673.04L335.76 659.6Z" fill="#FBB632"/>
<path d="M22.648 264.404L31.654 266.798C33.478 259.388 36.67 249.128 40.204 238.526L70.756 240.236C76.114 253.802 80.104 264.746 80.218 264.974L88.882 261.896C87.97 259.388 66.766 201.248 55.936 186.2L47.728 187.226C47.044 189.506 28.918 240.236 22.648 264.404ZM43.168 229.406C46.93 218.006 50.578 207.176 53.2 199.88C57.532 207.974 62.434 219.602 66.994 230.774L43.168 229.406Z" fill="#FBB632"/>
<path d="M30.85 451.83C31.7 451.83 49.38 451.49 67.23 443.5C92.05 432.62 105.14 413.07 105.31 386.72C105.31 347.96 74.37 333 39.52 333C31.02 333 25.07 333.85 24.39 334.02L18.1 334.87L24.22 452L30.85 451.83ZM79.98 358.67C87.63 365.3 91.2 374.48 91.2 386.72C91.2 426.67 53.29 435.51 37.31 437.38L32.72 347.11C43.6 346.6 66.38 346.94 79.98 358.67Z" fill="#FBB632"/>
<path d="M154.279 300.498L104.496 408.649L186.061 435.749L190.418 422.825L123.252 400.52L166.607 306.263L154.279 300.498Z" fill="#FBB632"/>
<path d="M197.76 409.767L200.422 528.796L285.613 517.4L283.863 503.875L213.716 513.269L211.367 409.545L197.76 409.767Z" fill="#FBB632"/>
<path d="M343.49 424.05C348.76 417.42 352.5 408.92 351.82 397.7C350.46 368.8 321.39 362.17 297.42 362.17C284.33 362.17 273.79 364.04 272.94 364.04L266.99 365.06L273.96 481.17L287.56 480.49L281.61 376.62C286.03 376.11 291.64 375.77 297.42 375.77C312.72 375.77 337.71 378.32 338.22 398.21C338.56 405.01 337.03 410.45 333.29 414.7C326.15 409.94 318.67 406.71 310.85 405.69C300.14 404.16 292.32 407.39 290.28 414.19C287.73 422.52 290.11 427.79 292.32 431.02C298.27 439.01 309.83 439.35 311.36 439.35L311.87 439.01C317.65 438.5 325.64 436.63 332.78 432.55C340.26 440.88 347.23 454.14 347.74 475.9L361.51 475.73C361 454.65 354.71 436.63 343.49 424.05ZM310.85 425.58C308.81 425.58 304.56 424.56 303.37 422.69C302.69 422.01 302.86 420.82 303.03 419.29C305.41 418.44 312.38 418.78 320.71 423.03C315.95 424.73 312.21 425.24 310.85 425.58Z" fill="#FBB632"/>
<path d="M253.386 305.175L239.531 306.248C240.619 317.576 241.187 333.589 241.442 350.252L197.602 362.913C183.371 346.464 172.359 333.03 172.086 332.765L161.411 341.37C163.931 344.45 222.445 415.814 245.108 431.65L256.153 426.158C255.991 422.612 256.481 342.28 253.386 305.175ZM241.768 364.549C242.096 382.447 242.303 399.488 242.212 411.049C232.123 401.794 219.49 387.847 207.563 374.374L241.768 364.549Z" fill="#FBB632"/>
<path d="M56.02 514.28C64.35 537.74 91.72 556.27 118.41 556.27C136.26 556.27 161.93 553.55 178.59 530.43C191 513.43 193.72 493.2 186.41 473.48C178.08 451.04 157.34 432.51 134.9 427.24C132.01 426.56 129.12 426.22 126.06 426.22C109.91 426.22 90.87 434.89 77.27 444.07C56.19 458.35 47.01 488.78 56.02 514.28ZM83.9 453.93C95.46 445.94 112.46 437.95 126.06 437.95C128.27 437.95 130.31 437.95 132.52 438.63C151.05 442.88 168.39 458.69 175.36 477.56C181.31 493.54 179.1 509.86 169.07 523.46C158.36 538.25 142.89 544.54 118.41 544.54C96.82 544.54 73.7 529.24 67.07 510.71C59.76 489.63 67.07 465.32 83.9 453.93ZM138.13 453.93L129.46 442.88L118.92 451.21L127.59 462.43L138.13 453.93ZM149.52 454.27L140.85 462.09C149.01 471.1 151.9 484.87 147.99 496.43C144.25 507.99 133.71 517.17 121.64 519.38C109.74 521.42 96.48 516.83 88.66 507.65L79.65 514.96C88.66 525.67 101.92 531.62 115.69 531.62C118.41 531.62 121.13 531.45 123.68 531.11C140 528.05 153.94 515.98 159.21 500.17C164.48 484.53 160.74 466.51 149.52 454.27ZM87.98 480.62L77.78 488.44L86.62 499.83L96.65 492.01L87.98 480.62Z" fill="#FBB632"/>
<path d="M199.032 243.123L191.799 242.799L191.12 262.739C184.989 253.916 178.046 247.18 170.945 242.02C151.301 227.746 125.275 222.644 101.507 226.652C98.5483 227.039 96.7549 227.568 96.4365 227.618L98.2749 234.591C98.4341 234.565 113.519 230.871 132.169 233.713C145.061 235.753 156.646 240.366 166.421 247.47C173.523 252.63 179.686 259.081 185.07 266.798L163.627 258.685L161.014 265.383L197.731 279.239L199.032 243.123Z" fill="#FFD29C"/>
</g>
<defs>
<clipPath id="clip0_51_847">
<rect width="375" height="987" fill="white"/>
</clipPath>
</defs>
</svg>
