<svg width="290" height="144" viewBox="0 0 290 144" fill="none" xmlns="http://www.w3.org/2000/svg">
<path opacity="0.8" d="M29.8013 82.0686C25.7409 82.1037 21.8601 82.1492 19.0978 81.6285C14.4658 80.729 11.8282 75.4376 12.0256 70.9416C12.1023 68.3317 13.3016 62.2711 22.2159 61.0749C24.0359 60.8197 25.6589 60.8237 27.1863 60.9122C30.8702 61.1257 33.9574 62.2061 36.2685 64.143C41.833 68.7927 42.2087 77.0181 42.203 77.1079L49.7963 76.8268C49.7352 76.3725 49.2737 65.2574 41.2299 58.4807C37.5502 55.3827 33.0598 53.68 27.7587 53.3728C25.6922 53.253 23.6141 53.3129 21.3392 53.6318C9.3355 55.1898 4.74659 63.4881 4.46675 70.6838C4.16763 79.5913 9.79486 87.49 17.6327 89.026C21.1081 89.6782 25.3482 89.6535 29.8636 89.5546C33.0256 89.4674 35.8167 89.539 38.1528 89.6744C45.7899 90.117 49.3818 91.7676 49.7962 96.5695C50.3882 102.824 45.8953 106.801 35.9409 108.748C34.205 109.098 32.4864 109.179 30.7793 109.08C25.2086 108.757 20.4105 106.225 17.5108 103.623C14.869 101.216 13.4183 98.5179 13.6403 96.4573L6.11019 95.7504C5.72739 100.326 8.02857 105.237 12.4595 109.28C16.4699 112.848 22.9291 116.197 30.3866 116.63C32.6329 116.76 34.9862 116.626 37.4523 116.138C55.9961 112.435 57.8477 101.814 57.3284 95.8341C56.3831 85.2319 47.5303 82.6453 38.5454 82.1246C35.5804 81.9528 32.5083 82.0451 29.8013 82.0686Z" fill="#FFD29C"/>
<path opacity="0.8" d="M72.228 23.8556L65.0494 23.3015L60.2738 81.7864C59.9752 84.2908 59.938 85.8224 60.0054 86.0984L67.1167 86.3765L69.8851 53.1015C75.3885 52.082 80.5854 51.4902 85.6104 51.878C92.6096 52.4183 99.2726 54.8281 106.385 60.5223L105.163 87.1467L112.267 87.5145L115.27 27.5388L108.069 27.2538L107.264 43.4396L107.063 49.1108L106.772 52.6088C99.5107 47.6252 92.2794 45.5326 85.4597 45.0062C80.2552 44.6045 75.2452 45.1204 70.4821 45.9263L72.228 23.8556Z" fill="#FFD29C"/>
<path opacity="0.8" d="M123.725 59.0339L119.525 65.0607C124.52 68.4444 131.256 73.624 138.153 79.1511L128.651 101.353C117.163 101.612 107.984 101.574 107.785 101.596L107.728 108.869C109.831 108.879 158.594 109.074 172.655 105.161L174.108 98.7894C172.604 97.6572 139.929 70.308 123.725 59.0339ZM144.107 83.8492C151.533 89.7641 158.568 95.4383 163.264 99.3828C156.103 100.38 146.172 100.831 136.671 101.154L144.107 83.8492Z" fill="#FFD29C"/>
<path opacity="0.8" d="M192.972 43.3926C194.809 39.2885 195.62 34.4284 193.812 28.7611C189.355 14.1115 173.597 14.5805 161.315 17.7727C154.608 19.5159 149.45 21.8792 149.015 21.9924L146.099 23.3083L164.777 81.9647L171.657 79.8046L155.094 27.2936C157.292 26.4432 160.123 25.5216 163.084 24.7519C170.924 22.7143 184.06 20.6949 186.909 30.834C187.968 34.2783 187.892 37.2738 186.529 39.9528C182.251 38.461 177.998 37.7996 173.859 38.3175C168.172 38.9587 164.585 41.6576 164.425 45.4189C164.202 50.0332 166.107 52.4207 167.66 53.784C171.748 57.0918 177.715 55.7268 178.499 55.5231L178.716 55.2807C181.612 54.2492 185.462 52.2255 188.59 49.1809C193.506 52.4595 198.803 58.336 201.896 69.4348L208.929 67.5137C205.925 56.7639 200.358 48.3542 192.972 43.3926ZM176.446 48.5246C175.401 48.7963 173.091 48.8388 172.238 48.0376C171.801 47.7792 171.733 47.1459 171.621 46.3381C172.73 45.585 176.346 44.8312 181.167 45.9029C178.949 47.4092 177.099 48.169 176.446 48.5246Z" fill="#FFD29C"/>
<path opacity="0.8" d="M238.54 33.8817L211.348 90.7705L256.154 106.218L258.647 99.3554L221.54 86.5163L230.456 67.8166L258.839 79.9578L261.782 73.1901L233.648 61.155L242.134 43.4458L270.02 55.3746L272.963 48.6069L238.54 33.8817Z" fill="#FFD29C"/>
</svg>
