<svg width="32" height="28" viewBox="0 0 32 28" fill="none" xmlns="http://www.w3.org/2000/svg">
<path d="M2.71 18.44C4.425 23.27 10.06 27.085 15.555 27.085C19.23 27.085 24.515 26.525 27.945 21.765C30.5 18.265 31.06 14.1 29.555 10.04C27.84 5.42 23.57 1.605 18.95 0.519998C18.355 0.379998 17.76 0.309999 17.13 0.309999C13.805 0.309999 9.885 2.095 7.085 3.985C2.745 6.925 0.855 13.19 2.71 18.44ZM8.45 6.015C10.83 4.37 14.33 2.725 17.13 2.725C17.585 2.725 18.005 2.725 18.46 2.865C22.275 3.74 25.845 6.995 27.28 10.88C28.505 14.17 28.05 17.53 25.985 20.33C23.78 23.375 20.595 24.67 15.555 24.67C11.11 24.67 6.35 21.52 4.985 17.705C3.48 13.365 4.985 8.36 8.45 6.015ZM19.615 6.015L17.83 3.74L15.66 5.455L17.445 7.765L19.615 6.015ZM21.96 6.085L20.175 7.695C21.855 9.55 22.45 12.385 21.645 14.765C20.875 17.145 18.705 19.035 16.22 19.49C13.77 19.91 11.04 18.965 9.43 17.075L7.575 18.58C9.43 20.785 12.16 22.01 14.995 22.01C15.555 22.01 16.115 21.975 16.64 21.905C20 21.275 22.87 18.79 23.955 15.535C25.04 12.315 24.27 8.605 21.96 6.085ZM9.29 11.51L7.19 13.12L9.01 15.465L11.075 13.855L9.29 11.51Z" fill="#FD6FB0"/>
</svg>
