<svg width="21" height="18" viewBox="0 0 21 18" fill="none" xmlns="http://www.w3.org/2000/svg">
<path d="M20.96 2.76463C20.19 3.11463 19.36 3.34463 18.5 3.45463C19.38 2.92463 20.06 2.08463 20.38 1.07463C19.55 1.57463 18.63 1.92463 17.66 2.12463C16.87 1.26463 15.76 0.764633 14.5 0.764633C12.15 0.764633 10.23 2.68463 10.23 5.05463C10.23 5.39463 10.27 5.72463 10.34 6.03463C6.77999 5.85463 3.60999 4.14463 1.49999 1.55463C1.12999 2.18463 0.919994 2.92463 0.919994 3.70463C0.919994 5.19463 1.66999 6.51463 2.82999 7.26463C2.11999 7.26463 1.45999 7.06463 0.879994 6.76463V6.79463C0.879994 8.87463 2.35999 10.6146 4.31999 11.0046C3.69072 11.1768 3.03009 11.2008 2.38999 11.0746C2.6616 11.9271 3.19353 12.673 3.91101 13.2076C4.62849 13.7421 5.49544 14.0383 6.38999 14.0546C4.87362 15.2551 2.99399 15.9039 1.05999 15.8946C0.719993 15.8946 0.379993 15.8746 0.0399933 15.8346C1.93999 17.0546 4.19999 17.7646 6.61999 17.7646C14.5 17.7646 18.83 11.2246 18.83 5.55463C18.83 5.36463 18.83 5.18463 18.82 4.99463C19.66 4.39463 20.38 3.63463 20.96 2.76463V2.76463Z" fill="#F06530"/>
</svg>
