<svg width="333" height="102" viewBox="0 0 333 102" fill="none" xmlns="http://www.w3.org/2000/svg">
<path opacity="0.8" d="M59.8104 61.6385C54.5855 45.3192 47.3988 18.909 46.3604 15.0332L46.3633 14.7632L46.1852 14.5822L46.0043 14.6712L39.534 13.7351C39.4402 14.0945 30.9381 43.1171 24.9007 60.5434C21.1786 46.7526 14.6848 22.8662 11.2115 11.0568L4.53036 12.9995C9.4776 30.0372 20.9031 72.4011 20.9883 72.8516L27.5534 73.3383C31.2442 64.8989 38.3296 42.0784 42.6232 27.7924C46.6104 42.0347 53.3761 65.7425 56.8842 74.3122L63.4589 73.8989C63.6428 73.5399 75.8879 31.2182 81.1995 14.3279L74.5618 12.2208C70.9253 23.9905 63.8292 47.8009 59.8104 61.6385Z" fill="#FFD29C"/>
<path opacity="0.8" d="M178.654 14.375L180.605 75.7661L187.809 75.4463L187.155 52.4926C197.055 52.548 210.842 51.005 217.942 43.5746C220.858 40.2609 222.073 36.1277 221.402 31.5339C219.487 17.1232 205.942 12.8175 193.162 12.7461C186.953 12.7114 182.172 13.6747 181.811 13.7627L178.654 14.375ZM186.149 20.4469C187.951 20.277 190.474 20.0211 193.264 20.0367C201.994 20.0855 212.951 22.3067 214.28 32.5742C214.614 35.006 214.052 37.0729 212.595 38.6848C207.585 44.2368 193.983 45.3308 186.963 45.2915L186.149 20.4469Z" fill="#FFD29C"/>
<path opacity="0.8" d="M114.808 41.3244C113.552 57.2048 120.758 72.2368 137.802 73.6198C138.43 73.6707 138.968 73.7144 139.507 73.7581C154.641 74.1734 162.183 65.5752 165.829 58.2863C169.461 51.1767 170.022 44.0889 170.025 42.9153C170.228 41.487 171.272 28.2983 163.934 19.486C159.969 14.8301 154.399 12.211 147.477 11.83C136.871 11.2402 128.535 13.9048 122.842 19.6732C114.797 27.7792 114.71 39.1493 114.808 41.3244ZM127.952 24.6929C133.056 19.5088 140.809 18.5126 147.717 19.073C160.096 20.0775 163.729 31.2078 162.856 42.2432L162.841 42.4227C162.756 43.4993 161.427 67.1392 139.813 66.469C134.23 66.2868 130.03 64.5917 127.049 61.1894C120.847 54.0043 121.985 41.9067 121.999 41.7273L122.042 41.189C122.056 41.0095 121.491 31.0312 127.952 24.6929Z" fill="#FFD29C"/>
<path opacity="0.8" d="M81.5148 41.3244C80.258 57.2048 87.4645 72.2368 104.508 73.6198C105.136 73.6707 105.675 73.7144 106.213 73.7581C121.347 74.1734 128.889 65.5752 132.536 58.2863C136.168 51.1767 136.729 44.0889 136.731 42.9153C136.935 41.487 137.978 28.2983 130.641 19.486C126.676 14.8301 121.105 12.211 114.184 11.83C103.577 11.2402 95.2408 13.9048 89.548 19.6732C81.5034 27.7792 81.4161 39.1493 81.5148 41.3244ZM94.6579 24.6929C99.7628 19.5088 107.516 18.5126 114.423 19.073C126.802 20.0775 130.435 31.2078 129.562 42.2432L129.548 42.4227C129.463 43.4993 128.133 67.1392 106.519 66.469C100.936 66.2868 96.7365 64.5917 93.7557 61.1894C87.5532 54.0043 88.6912 41.9067 88.7054 41.7273L88.748 41.189C88.7622 41.0095 88.1977 31.0312 94.6579 24.6929Z" fill="#FFD29C"/>
<path opacity="0.8" d="M251.149 37.6732C247.097 37.9205 243.224 38.1689 240.438 37.7933C235.765 37.1372 232.85 31.9909 232.808 27.4907C232.746 24.8803 233.622 18.7652 242.46 17.1046C244.264 16.7546 245.885 16.6737 247.415 16.6822C251.105 16.7029 254.245 17.6204 256.656 19.4339C262.459 23.7863 263.271 31.9809 263.27 32.0709L270.838 31.3932C270.753 30.9427 269.702 19.8668 261.309 13.5199C257.47 10.6184 252.896 9.15286 247.586 9.12319C245.516 9.11162 243.444 9.28005 241.189 9.71745C229.285 11.9009 225.143 20.4278 225.246 27.6284C225.42 36.5394 231.459 44.1332 239.367 45.2574C242.873 45.7269 247.105 45.4806 251.609 45.1458C254.762 44.8934 257.553 44.819 259.893 44.832C267.543 44.8748 271.217 46.3353 271.886 51.1091C272.809 57.3242 268.534 61.5304 258.697 63.9954C256.982 64.4358 255.27 64.6063 253.56 64.5967C247.98 64.5655 243.055 62.288 240.021 59.841C237.255 57.5756 235.663 54.9567 235.775 52.8873L228.218 52.5751C228.079 57.1643 230.638 61.9486 235.277 65.7545C239.471 69.108 246.099 72.115 253.569 72.1568C255.819 72.1693 258.162 71.9124 260.599 71.296C278.92 66.6284 280.205 55.9256 279.369 49.9809C277.862 39.4424 268.884 37.3223 259.884 37.272C256.914 37.2554 253.851 37.5083 251.149 37.6732Z" fill="#FFD29C"/>
<path opacity="0.8" d="M295.389 56.6374C295.867 45.6601 299.328 16.6993 303.074 11.5003L297.805 7.60081C293.968 12.8894 289.716 40.1357 288.926 54.9813C288.829 55.6108 288.825 56.0607 288.819 56.6007L295.389 56.6374ZM288.798 75.3206L295.371 74.9974C295.22 72.2965 295.084 68.2458 295.134 63.566L288.654 63.5298C288.493 70.1889 288.801 75.0507 288.798 75.3206Z" fill="#FFD29C"/>
</svg>
